HIERARCHY
ROOT Hips
{
    OFFSET 0.000000 0.000000 0.000000
    CHANNELS 6 Xposition Yposition Zposition Zrotation Xrotation Yrotation
    JOINT Spine
    {
        OFFSET -0.000000 7.236184 0.000000
        CHANNELS 3 Zrotation Xrotation Yrotation
        JOINT Spine1
        {
            OFFSET -0.000000 20.420147 0.000000
            CHANNELS 3 Zrotation Xrotation Yrotation
            JOINT Neck
            {
                OFFSET -0.000000 20.336288 1.848754
                CHANNELS 3 Zrotation Xrotation Yrotation
                JOINT Head
                {
                    OFFSET -0.000000 12.354461 -1.764923
                    CHANNELS 3 Zrotation Xrotation Yrotation
                    End Site
                    {
                        OFFSET -0.000000 22.061537 0.000000
                    }
                }
            }
            JOINT LeftShoulder
            {
                OFFSET 3.573296 18.396038 -0.314103
                CHANNELS 3 Zrotation Xrotation Yrotation
                JOINT LeftArm
                {
                    OFFSET 10.880760 0.000000 0.000000
                    CHANNELS 3 Zrotation Xrotation Yrotation
                    JOINT LeftForeArm
                    {
                        OFFSET 27.185530 0.000000 0.000000
                        CHANNELS 3 Zrotation Xrotation Yrotation
                        JOINT LeftHand
                        {
                            OFFSET 27.825975 0.000000 0.000000
                            CHANNELS 3 Zrotation Xrotation Yrotation
                            End Site
                            {
                                OFFSET 13.236923 0.000000 0.000000
                            }
                        }
                    }
                }
            }
            JOINT RightShoulder
            {
                OFFSET -3.474926 18.396038 -0.314103
                CHANNELS 3 Zrotation Xrotation Yrotation
                JOINT RightArm
                {
                    OFFSET -10.880760 0.000000 0.000000
                    CHANNELS 3 Zrotation Xrotation Yrotation
                    JOINT RightForeArm
                    {
                        OFFSET -27.185530 0.000000 0.000000
                        CHANNELS 3 Zrotation Xrotation Yrotation
                        JOINT RightHand
                        {
                            OFFSET -27.825975 0.000000 0.000000
                            CHANNELS 3 Zrotation Xrotation Yrotation
                            End Site
                            {
                                OFFSET -13.236923 0.000000 0.000000
                            }
                        }
                    }
                }
            }
        }
    }
    JOINT LeftUpLeg
    {
        OFFSET 8.824615 0.000000 0.000000
        CHANNELS 3 Zrotation Xrotation Yrotation
        JOINT LeftLeg
        {
            OFFSET -0.000000 -35.111282 0.000000
            CHANNELS 3 Zrotation Xrotation Yrotation
            JOINT LeftFoot
            {
                OFFSET -0.000000 -42.324711 0.000000
                CHANNELS 3 Zrotation Xrotation Yrotation
                JOINT LeftToeBase
                {
                    OFFSET -0.000000 -5.735999 13.236923
                    CHANNELS 3 Zrotation Xrotation Yrotation
                    End Site
                    {
                        OFFSET -0.000000 0.000000 3.529846
                    }
                }
            }
        }
    }
    JOINT RightUpLeg
    {
        OFFSET -8.824615 0.000000 0.000000
        CHANNELS 3 Zrotation Xrotation Yrotation
        JOINT RightLeg
        {
            OFFSET -0.000000 -35.111282 0.000000
            CHANNELS 3 Zrotation Xrotation Yrotation
            JOINT RightFoot
            {
                OFFSET -0.000000 -42.324711 0.000000
                CHANNELS 3 Zrotation Xrotation Yrotation
                JOINT RightToeBase
                {
                    OFFSET -0.000000 -5.735999 13.236923
                    CHANNELS 3 Zrotation Xrotation Yrotation
                    End Site
                    {
                        OFFSET -0.000000 0.000000 3.529846
                    }
                }
            }
        }
    }
}
MOTION
Frames:    8
Frame Time:    0.008333
-5.847525    82.469025    99.722984    -1.052545    -10.742771    -177.180161    -2.263670    -18.044003    -0.296133    0.335649    5.065412    0.049028    3.751648    4.785570    -1.136417    -0.701756    -9.264883    -1.734538    0.698736    18.679420    -1.899321    -54.403477    43.226425    -31.969707    0.127183    -9.620070    -14.402693    18.452042    -8.713384    5.550860    6.194055    19.150866    -5.843606    53.537697    36.942493    26.744385    -3.368738    -10.968302    15.024430    -15.503604    -9.762220    -5.738024    1.415042    -8.701063    -1.217984    -1.439795    8.985221    -5.532123    -0.906708    -9.158110    -5.229968    0.155582    0.574708    -0.172279    -4.106575    -5.519570    2.880308    3.848372    4.398152    4.975870    -2.701562    -6.606944    -13.522253    0.156334    0.641416    -0.168940    
-5.847146    82.464203    99.703239    -1.057895    -10.753229    -177.192291    -2.268360    -18.017036    -0.299496    0.337385    5.090537    0.045179    3.733136    4.773259    -1.180727    -0.667556    -9.379723    -1.772138    0.691378    18.691332    -1.901790    -54.343887    43.244461    -32.019093    0.141250    -9.579615    -14.410715    18.468834    -8.678347    5.500511    6.198699    19.160597    -5.843910    53.520687    36.963367    26.756130    -3.372815    -10.966044    15.068621    -15.524132    -9.755969    -5.746311    1.410084    -8.690725    -1.253536    -1.442364    8.976250    -5.483233    -0.909232    -9.172277    -5.238048    0.140278    0.565414    -0.155336    -4.066582    -5.485885    2.759681    3.754672    4.339441    4.952041    -2.669453    -6.588883    -13.352473    0.163017    0.666473    -0.176156    
-5.846690    82.459435    99.683670    -1.063082    -10.763953    -177.204208    -2.273203    -17.989697    -0.303056    0.339290    5.115180    0.041353    3.714830    4.760312    -1.225136    -0.633659    -9.493720    -1.809907    0.683844    18.702856    -1.904505    -54.284176    43.263020    -32.068092    0.154697    -9.537979    -14.419213    18.491804    -8.641726    5.451303    6.203377    19.170084    -5.844195    53.504307    36.984375    26.767220    -3.377152    -10.964190    15.112889    -15.544056    -9.750029    -5.755332    1.405430    -8.680806    -1.288820    -1.445130    8.967270    -5.435213    -0.911510    -9.186202    -5.245589    0.125280    0.556457    -0.138730    -4.028193    -5.458427    2.648863    3.665762    4.290926    4.923760    -2.639401    -6.575480    -13.189268    0.169808    0.690778    -0.183489    
-5.846084    82.454750    99.664330    -1.067936    -10.775188    -177.215927    -2.278004    -17.961845    -0.307730    0.340899    5.139475    0.038356    3.696967    4.746576    -1.269815    -0.600026    -9.607543    -1.848012    0.676675    18.713810    -1.907382    -54.223816    43.282684    -32.117226    0.166581    -9.494306    -14.428641    18.525146    -8.602511    5.403826    6.208194    19.179350    -5.844440    53.488789    37.005779    26.777517    -3.381799    -10.963102    15.157692    -15.563054    -9.744639    -5.765645    1.401363    -8.671556    -1.323407    -1.448159    8.958234    -5.388297    -0.913478    -9.199797    -5.252750    0.110729    0.547580    -0.122619    -3.992045    -5.441855    2.553169    3.583935    4.260302    4.885919    -2.611239    -6.570298    -13.033274    0.176780    0.713805    -0.191016    
-5.845287    82.450195    99.645317    -1.072443    -10.787175    -177.227295    -2.283107    -17.933098    -0.311829    0.342777    5.163143    0.034437    3.679595    4.730500    -1.314809    -0.567190    -9.719585    -1.886673    0.669340    18.723637    -1.910585    -54.162449    43.304379    -32.166027    0.176608    -9.448614    -14.439353    18.570349    -8.560528    5.358938    6.213164    19.188192    -5.844996    53.474331    37.028080    26.786663    -3.387027    -10.963082    15.203279    -15.580574    -9.740027    -5.778054    1.397951    -8.663194    -1.356997    -1.451522    8.948900    -5.343254    -0.914994    -9.212783    -5.259089    0.096776    0.539541    -0.107168    -3.958814    -5.438196    2.475330    3.510689    4.250718    4.836820    -2.584491    -6.574782    -12.885839    0.183796    0.734436    -0.198592    
-5.844275    82.445824    99.626755    -1.076571    -10.800138    -177.238220    -2.288472    -17.903399    -0.315199    0.344657    5.185831    0.029383    3.662548    4.712363    -1.359955    -0.534449    -9.829713    -1.925551    0.662112    18.732765    -1.914395    -54.099571    43.328083    -32.215034    0.184120    -9.401797    -14.451030    18.624931    -8.516817    5.317329    6.218377    19.196676    -5.845352    53.461243    37.051144    26.794188    -3.392883    -10.964504    15.249754    -15.596173    -9.736452    -5.793286    1.395252    -8.656029    -1.389051    -1.455165    8.939274    -5.300837    -0.916189    -9.225018    -5.264497    0.083486    0.531925    -0.092453    -3.928751    -5.447167    2.414991    3.446388    4.261335    4.777412    -2.557098    -6.588710    -12.747461    0.190646    0.751621    -0.205989    
-5.843002    82.441620    99.608505    -1.080301    -10.814379    -177.248810    -2.294183    -17.872391    -0.320010    0.346348    5.208015    0.025311    3.645720    4.690795    -1.405572    -0.501414    -9.937848    -1.964927    0.654912    18.741266    -1.918699    -54.033630    43.354980    -32.265404    0.189244    -9.354957    -14.463716    18.684677    -8.472589    5.279185    6.223916    19.204687    -5.845760    53.449505    37.075481    26.799980    -3.399397    -10.967484    15.297917    -15.609430    -9.733903    -5.812279    1.393520    -8.649978    -1.419593    -1.459493    8.928782    -5.261058    -0.916944    -9.236174    -5.268822    0.070756    0.525226    -0.078357    -3.901544    -5.466662    2.369642    3.390102    4.288114    4.710360    -2.527120    -6.610395    -12.617729    0.197050    0.765125    -0.212904    
-5.841467    82.437630    99.590683    -1.083667    -10.830065    -177.258881    -2.300321    -17.840122    -0.325433    0.347812    5.229387    0.021334    3.629663    4.665573    -1.451147    -0.468871    -10.043158    -2.004410    0.647781    18.749134    -1.923635    -53.964901    43.384747    -32.317047    0.191610    -9.309399    -14.476795    18.744469    -8.429464    5.244699    6.229918    19.212202    -5.846040    53.439259    37.100986    26.803764    -3.406570    -10.972241    15.347515    -15.619854    -9.732552    -5.835689    1.392519    -8.645283    -1.447725    -1.464006    8.917459    -5.224784    -0.917468    -9.246165    -5.272339    0.058652    0.518865    -0.064953    -3.877624    -5.493157    2.336996    3.342082    4.324378    4.641397    -2.493529    -6.636743    -12.499852    0.202722    0.773488    -0.219029    
